<?xml version="1.0" encoding="utf-8"?>
<!-- Generator: Adobe Illustrator 19.2.0, SVG Export Plug-In . SVG Version: 6.00 Build 0)  -->
<svg version="1.1" id="Layer_1" xmlns="http://www.w3.org/2000/svg" xmlns:xlink="http://www.w3.org/1999/xlink" x="0px" y="0px"
	 viewBox="0 0 165.4 37.4" style="enable-background:new 0 0 165.4 37.4;" xml:space="preserve">
<style type="text/css">
	.st0{fill:#F2F2F2;}
</style>
<g>
	<g>
		<path class="st0" d="M59.7,9.4c-1.5-0.6-3.2-0.9-5.1-0.9c-1.6,0-4.3,0-4.3,1.6c0,2.6,10.5,0.2,10.5,5.8c0,3.4-3.6,4-7.1,4
			c-2.1,0-4.4-0.4-6.2-0.9v-2.3c1.8,0.6,4.2,1.1,6.1,1.1c2.5,0,4.6-0.3,4.6-1.9c0-2.8-10.5-0.3-10.5-5.8c0-3.2,3.7-3.7,6.9-3.7
			c2.1,0,3.8,0.4,5.2,0.9L59.7,9.4z"/>
		<path class="st0" d="M67.6,19.4V8.9h-6.1V6.8h14.7V9h-6.1v10.4H67.6z"/>
		<path class="st0" d="M78.4,19.4V6.8h12.8V9H81v2.9h8.4V14H81v3.3h10.2v2.1H78.4z"/>
		<path class="st0" d="M104.5,19.4l-2.8-4.3h-4.9v4.3h-2.6V6.8h8.3c3.3,0,4.7,2.2,4.7,4.1c0,1.6-0.9,3.1-2.8,3.8l3,4.7H104.5z
			 M96.9,8.9v4h5.1c1.9,0,2.6-0.9,2.6-2c0-1-0.7-2-2.6-2H96.9z"/>
		<path class="st0" d="M110,19.4V6.8h2.6v10.5h9.4v2.1H110z"/>
		<path class="st0" d="M124.3,19.4V6.8h2.6v12.6C126.9,19.4,124.3,19.4,124.3,19.4z"/>
		<path class="st0" d="M132.8,10.9v8.5h-2.6V6.3l12.6,9.1V6.8h2.6v13.1L132.8,10.9z"/>
		<path class="st0" d="M158.4,14.5v-2.1h6.9c0,0.3,0.1,0.6,0.1,0.9c-0.1,4-3.5,6.6-8.1,6.6c-5.4,0-8.9-3-8.9-6.8
			c0-3.7,3.5-6.8,8.9-6.8c2.2,0,4.3,0.5,6,1.6v2.4c-1.2-0.8-2.8-1.5-4.7-1.7c-3.4-0.5-7.5,1.2-7.5,4.5c0,2.6,2.7,4.6,6.2,4.6
			c2.6,0,4.7-1.1,5.3-3.1L158.4,14.5L158.4,14.5z"/>
	</g>
	<g>
		<path class="st0" d="M49.2,26.5v4.4h-1.3v-6.7l6.5,4.7v-4.4h1.3v6.7L49.2,26.5z"/>
		<path class="st0" d="M64.9,30.8L64,29.5h-3.9l-0.8,1.4h-1.5l4.3-6.7l4.3,6.7h-1.5V30.8z M62.1,26.3l-1.3,2.1h2.6L62.1,26.3z"/>
		<path class="st0" d="M69.8,30.8v-5.4h-3.1v-1.1h7.6v1.1h-3.1v5.4H69.8z"/>
		<path class="st0" d="M76.6,30.8v-6.5h1.3v6.5H76.6z"/>
		<path class="st0" d="M85.3,31.1c-2.8,0-4.6-1.4-4.6-3.5c0-2,1.8-3.5,4.6-3.5c2.7,0,4.6,1.5,4.6,3.5C89.8,29.6,88.1,31.1,85.3,31.1
			z M85.3,25.2c-1.8,0-3.2,0.9-3.2,2.4s1.4,2.4,3.2,2.4c1.8,0,3.2-0.9,3.2-2.4C88.4,26.1,87.1,25.2,85.3,25.2z"/>
		<path class="st0" d="M93.9,26.5v4.4h-1.3v-6.7l6.5,4.7v-4.4h1.3v6.7L93.9,26.5z"/>
		<path class="st0" d="M109.6,30.8l-0.8-1.4h-3.9l-0.8,1.4h-1.5l4.3-6.7l4.3,6.7H109.6z M106.8,26.3l-1.3,2.1h2.6L106.8,26.3z"/>
		<path class="st0" d="M113.3,30.8v-6.5h1.3v5.4h4.9v1.1H113.3z"/>
		<path class="st0" d="M127.1,30.8v-6.5h4.3c1.5,0,2.4,0.4,2.4,1.9c0,0.5-0.4,1-0.7,1.1c0.7,0.1,1.3,0.8,1.3,1.6
			c0,1.4-0.8,1.9-2.7,1.9H127.1z M128.4,25.5V27h3c0.6,0,1-0.2,1-0.7c0-0.6-0.4-0.7-1-0.7L128.4,25.5L128.4,25.5z M128.4,28.1v1.7
			h3.3c0.8,0,1.3-0.2,1.3-0.8c0-0.6-0.4-0.8-1.3-0.8h-3.3V28.1z"/>
		<path class="st0" d="M143.2,30.8l-0.8-1.4h-3.9l-0.8,1.4h-1.5l4.3-6.7l4.3,6.7H143.2z M140.4,26.3l-1.3,2.1h2.6L140.4,26.3z"/>
		<path class="st0" d="M148.2,26.5v4.4h-1.3v-6.7l6.5,4.7v-4.4h1.3v6.7L148.2,26.5z"/>
		<path class="st0" d="M161.8,26.9l3.2,3.9h-1.6l-2.6-3.1l-1.8,1.5v1.6h-1.3v-6.5h1.3v3.5l4.2-3.5h1.7L161.8,26.9z"/>
	</g>
</g>
<g>
	<path class="st0" d="M19.6,30.4c0.6-3.2-0.3-6.6-2.7-10.1l-0.6-0.8C13.2,15,12,10.5,12.9,6c0.1-0.6,0.4-1.6,0.6-2.2L0,0v6.6V37h16
		C17.4,35.5,19,33.2,19.6,30.4z"/>
	<path class="st0" d="M20.9,0.4c-1.4,1.5-3.1,3.7-3.6,6.5c-0.6,3.2,0.3,6.6,2.7,10.1l0.6,0.8c3.1,4.5,4.3,9.1,3.4,13.5
		c-0.1,0.6-0.4,1.6-0.6,2.2l13.5,3.8v-6.6V0.4H20.9z"/>
</g>
</svg>
