<?xml version="1.0" encoding="utf-8"?>
<!-- Generator: Adobe Illustrator 19.1.0, SVG Export Plug-In . SVG Version: 6.00 Build 0)  -->
<svg version="1.1" id="Layer_1" xmlns="http://www.w3.org/2000/svg" xmlns:xlink="http://www.w3.org/1999/xlink" x="0px" y="0px"
	 viewBox="345.5 -257.5 540 160" style="enable-background:new 345.5 -257.5 540 160;" xml:space="preserve">
<style type="text/css">
	.st0{fill:#FFFFFF;}
</style>
<g>
	<path class="st0" d="M348.5-101.2v-149h36.9v117h45.8l5,32H348.5z"/>
	<path class="st0" d="M537.8-145.9h-63.5c1.7,16.6,11.7,23.1,25.9,23.1c11.7,0,23.1-4.3,34.8-11l3.2,22.9
		C526.8-103.6,512.7-99,496-99c-31.7,0-54.4-16.8-54.4-54.6c0-34.5,21.2-55.5,49.9-55.5c32.4,0,46.8,24.2,46.8,54.8
		C538.3-151.1,538.2-147.6,537.8-145.9z M490.7-188c-9.1,0-15.5,8-16.6,24.2h33.2C506.2-179.8,500.7-188,490.7-188z"/>
	<path class="st0" d="M620.7-101.2l-2.4-14.5c-9.7,9.5-19.9,16.6-33,16.6c-19.6,0-30-12.1-30-32.6V-207h32.6v66.3
		c0,7.6,3.2,13,11,13c6.3,0,12.1-3.7,17.9-9.5v-69.7h32.6v105.8L620.7-101.2L620.7-101.2z"/>
	<path class="st0" d="M792.2-101.2v-66.3c0-7.6-2.8-12.7-10.4-12.7c-5.8,0-11.4,3.7-17.3,9.3v69.7H732v-66.3
		c0-7.6-2.8-12.7-10.4-12.7c-6,0-11.4,3.7-17.3,9.3v69.7h-32.6V-207h28.7l2.4,14.5c9.5-9.7,19.2-16.6,32.8-16.6
		c14.5,0,22.5,7.1,26.3,16.6c9.5-9.5,19.9-16.6,33-16.6c19.6,0,30,12.3,30,32.8v75.1H792.2z"/>
	<path class="st0" d="M864-220.8c-10.4,0-18.6-6.9-18.6-17.5c0-10.8,8.2-17.7,18.6-17.7c10.6,0,18.6,6.9,18.6,17.7
		C882.5-227.7,874.5-220.8,864-220.8z M847.5-101.2V-207h32.8v105.8H847.5z"/>
</g>
</svg>
